<?xml version="1.0" encoding="UTF-8" standalone="no"?>
<svg
   xmlns:dc="http://purl.org/dc/elements/1.1/"
   xmlns:cc="http://creativecommons.org/ns#"
   xmlns:rdf="http://www.w3.org/1999/02/22-rdf-syntax-ns#"
   xmlns:svg="http://www.w3.org/2000/svg"
   xmlns="http://www.w3.org/2000/svg"
   xmlns:xlink="http://www.w3.org/1999/xlink"
   xmlns:sodipodi="http://sodipodi.sourceforge.net/DTD/sodipodi-0.dtd"
   xmlns:inkscape="http://www.inkscape.org/namespaces/inkscape"
   width="600"
   height="480"
   viewBox="0 0 600 480"
   id="svg2"
   version="1.1"
   inkscape:version="0.48.2 r9819"
   sodipodi:docname="threshold_force.svg">
  <metadata
     id="metadata191">
    <rdf:RDF>
      <cc:Work
         rdf:about="">
        <dc:format>image/svg+xml</dc:format>
        <dc:type
           rdf:resource="http://purl.org/dc/dcmitype/StillImage" />
      </cc:Work>
    </rdf:RDF>
  </metadata>
  <defs
     id="defs189" />
  <sodipodi:namedview
     pagecolor="#ffffff"
     bordercolor="#666666"
     borderopacity="1"
     objecttolerance="10"
     gridtolerance="10"
     guidetolerance="10"
     inkscape:pageopacity="0"
     inkscape:pageshadow="2"
     inkscape:window-width="1366"
     inkscape:window-height="724"
     id="namedview187"
     showgrid="false"
     inkscape:zoom="5.5625733"
     inkscape:cx="357.23398"
     inkscape:cy="46.649067"
     inkscape:window-x="0"
     inkscape:window-y="0"
     inkscape:window-maximized="0"
     inkscape:current-layer="g151" />
  <title
     id="title4">Gnuplot</title>
  <desc
     id="desc6">Produced by GNUPLOT 4.6 patchlevel 3 </desc>
  <g
     id="gnuplot_canvas">
    <rect
       x="0"
       y="0"
       width="600"
       height="480"
       fill="none"
       id="rect9" />
    <defs
       id="defs11">
      <circle
         id="gpDot"
         r="0.5"
         stroke-width="0.5" />
      <path
         id="gpPt0"
         stroke-width="0.222"
         stroke="currentColor"
         d="M-1,0 h2 M0,-1 v2" />
      <path
         id="gpPt1"
         stroke-width="0.222"
         stroke="currentColor"
         d="M-1,-1 L1,1 M1,-1 L-1,1" />
      <path
         id="gpPt2"
         stroke-width="0.222"
         stroke="currentColor"
         d="M-1,0 L1,0 M0,-1 L0,1 M-1,-1 L1,1 M-1,1 L1,-1" />
      <rect
         id="gpPt3"
         stroke-width="0.222"
         stroke="currentColor"
         x="-1"
         y="-1"
         width="2"
         height="2" />
      <rect
         id="gpPt4"
         stroke-width="0.222"
         stroke="currentColor"
         fill="currentColor"
         x="-1"
         y="-1"
         width="2"
         height="2" />
      <circle
         id="gpPt5"
         stroke-width="0.222"
         stroke="currentColor"
         cx="0"
         cy="0"
         r="1" />
      <use
         xlink:href="#gpPt5"
         id="gpPt6"
         fill="currentColor"
         stroke="none" />
      <path
         id="gpPt7"
         stroke-width="0.222"
         stroke="currentColor"
         d="M0,-1.33 L-1.33,0.67 L1.33,0.67 z" />
      <use
         xlink:href="#gpPt7"
         id="gpPt8"
         fill="currentColor"
         stroke="none" />
      <use
         xlink:href="#gpPt7"
         id="gpPt9"
         stroke="currentColor"
         transform="rotate(180)" />
      <use
         xlink:href="#gpPt9"
         id="gpPt10"
         fill="currentColor"
         stroke="none" />
      <use
         xlink:href="#gpPt3"
         id="gpPt11"
         stroke="currentColor"
         transform="rotate(45)" />
      <use
         xlink:href="#gpPt11"
         id="gpPt12"
         fill="currentColor"
         stroke="none" />
    </defs>
    <g
       style="fill:none; color:white; stroke:black; stroke-width:1.00; stroke-linecap:butt; stroke-linejoin:miter"
       id="g27" />
    <g
       style="fill:none; color:black; stroke:currentColor; stroke-width:1.00; stroke-linecap:butt; stroke-linejoin:miter"
       id="g29">
      <path
         stroke="black"
         d="M55.3,422.4 L64.3,422.4 M575.0,422.4 L566.0,422.4  h0.01"
         id="path31" />
      <g
         transform="translate(47.0,426.9)"
         style="stroke:none; fill:black; font-family:Times New Roman; font-size:12.00pt; text-anchor:end"
         id="g33">
        <text
           id="text35">
          <tspan
             id="tspan37"> 0</tspan>
        </text>
      </g>
      <path
         stroke="black"
         d="M55.3,371.7 L64.3,371.7 M575.0,371.7 L566.0,371.7  h0.01"
         id="path39" />
      <g
         transform="translate(47.0,376.2)"
         style="stroke:none; fill:black; font-family:Times New Roman; font-size:12.00pt; text-anchor:end"
         id="g41">
        <text
           id="text43">
          <tspan
             id="tspan45"> 1</tspan>
        </text>
      </g>
      <path
         stroke="black"
         d="M55.3,321.0 L64.3,321.0 M575.0,321.0 L566.0,321.0  h0.01"
         id="path47" />
      <g
         transform="translate(47.0,325.5)"
         style="stroke:none; fill:black; font-family:Times New Roman; font-size:12.00pt; text-anchor:end"
         id="g49">
        <text
           id="text51">
          <tspan
             id="tspan53"> 2</tspan>
        </text>
      </g>
      <path
         stroke="black"
         d="M55.3,270.3 L64.3,270.3 M575.0,270.3 L566.0,270.3  h0.01"
         id="path55" />
      <g
         transform="translate(47.0,274.8)"
         style="stroke:none; fill:black; font-family:Times New Roman; font-size:12.00pt; text-anchor:end"
         id="g57">
        <text
           id="text59">
          <tspan
             id="tspan61"> 3</tspan>
        </text>
      </g>
      <path
         stroke="black"
         d="M55.3,219.5 L64.3,219.5 M575.0,219.5 L566.0,219.5  h0.01"
         id="path63" />
      <g
         transform="translate(47.0,224.0)"
         style="stroke:none; fill:black; font-family:Times New Roman; font-size:12.00pt; text-anchor:end"
         id="g65">
        <text
           id="text67">
          <tspan
             id="tspan69"> 4</tspan>
        </text>
      </g>
      <path
         stroke="black"
         d="M55.3,168.8 L64.3,168.8 M575.0,168.8 L566.0,168.8  h0.01"
         id="path71" />
      <g
         transform="translate(47.0,173.3)"
         style="stroke:none; fill:black; font-family:Times New Roman; font-size:12.00pt; text-anchor:end"
         id="g73">
        <text
           id="text75">
          <tspan
             id="tspan77"> 5</tspan>
        </text>
      </g>
      <path
         stroke="black"
         d="M55.3,118.1 L64.3,118.1 M575.0,118.1 L566.0,118.1  h0.01"
         id="path79" />
      <g
         transform="translate(47.0,122.6)"
         style="stroke:none; fill:black; font-family:Times New Roman; font-size:12.00pt; text-anchor:end"
         id="g81">
        <text
           id="text83">
          <tspan
             id="tspan85"> 6</tspan>
        </text>
      </g>
      <path
         stroke="black"
         d="M55.3,67.4 L64.3,67.4 M575.0,67.4 L566.0,67.4  h0.01"
         id="path87" />
      <g
         transform="translate(47.0,71.9)"
         style="stroke:none; fill:black; font-family:Times New Roman; font-size:12.00pt; text-anchor:end"
         id="g89">
        <text
           id="text91">
          <tspan
             id="tspan93"> 7</tspan>
        </text>
      </g>
      <path
         stroke="black"
         d="M55.3,16.7 L64.3,16.7 M575.0,16.7 L566.0,16.7  h0.01"
         id="path95" />
      <g
         transform="translate(47.0,21.2)"
         style="stroke:none; fill:black; font-family:Times New Roman; font-size:12.00pt; text-anchor:end"
         id="g97">
        <text
           id="text99">
          <tspan
             id="tspan101"> 8</tspan>
        </text>
      </g>
      <path
         stroke="black"
         d="M55.3,422.4 L55.3,413.4 M55.3,16.7 L55.3,25.7  h0.01"
         id="path103" />
      <g
         transform="translate(55.3,444.9)"
         style="stroke:none; fill:black; font-family:Times New Roman; font-size:12.00pt; text-anchor:middle"
         id="g105">
        <text
           id="text107">
          <tspan
             id="tspan109"> 0</tspan>
        </text>
      </g>
      <path
         stroke="black"
         d="M185.2,422.4 L185.2,413.4 M185.2,16.7 L185.2,25.7  h0.01"
         id="path111" />
      <g
         transform="translate(185.2,444.9)"
         style="stroke:none; fill:black; font-family:Times New Roman; font-size:12.00pt; text-anchor:middle"
         id="g113">
        <text
           id="text115">
          <tspan
             id="tspan117"> 0.5</tspan>
        </text>
      </g>
      <path
         stroke="black"
         d="M315.2,422.4 L315.2,413.4 M315.2,16.7 L315.2,25.7  h0.01"
         id="path119" />
      <g
         transform="translate(315.2,444.9)"
         style="stroke:none; fill:black; font-family:Times New Roman; font-size:12.00pt; text-anchor:middle"
         id="g121">
        <text
           id="text123">
          <tspan
             id="tspan125"> 1</tspan>
        </text>
      </g>
      <path
         stroke="black"
         d="M445.1,422.4 L445.1,413.4 M445.1,16.7 L445.1,25.7  h0.01"
         id="path127" />
      <g
         transform="translate(445.1,444.9)"
         style="stroke:none; fill:black; font-family:Times New Roman; font-size:12.00pt; text-anchor:middle"
         id="g129">
        <text
           id="text131">
          <tspan
             id="tspan133"> 1.5</tspan>
        </text>
      </g>
      <path
         stroke="black"
         d="M575.0,422.4 L575.0,413.4 M575.0,16.7 L575.0,25.7  h0.01"
         id="path135" />
      <g
         transform="translate(575.0,444.9)"
         style="stroke:none; fill:black; font-family:Times New Roman; font-size:12.00pt; text-anchor:middle"
         id="g137">
        <text
           id="text139">
          <tspan
             id="tspan141"> 2</tspan>
        </text>
      </g>
      <path
         stroke="black"
         d="M55.3,16.7 L55.3,422.4 L575.0,422.4 L575.0,16.7 L55.3,16.7 Z  h0.01"
         id="path143" />
      <g
         transform="translate(17.6,219.6) rotate(270)"
         style="stroke:none; fill:black; font-family:Times New Roman; font-size:12.00pt; text-anchor:middle"
         id="g145">
        <text
           id="text147">
          <tspan
             id="tspan149">bias fonce [N]</tspan>
        </text>
      </g>
      <g
         transform="translate(315.1,471.9)"
         style="stroke:none; fill:black; font-family:Times New Roman; font-size:12.00pt; text-anchor:middle"
         id="g151">
        <text
           id="text153">
          <tspan
             id="tspan155">F [N]</tspan>
        </text>
      </g>
    </g>
    <g
       id="gnuplot_plot_1">
      <title
         id="title158">gnuplot_plot_1</title>
      <g
         style="fill:none; color:red; stroke:currentColor; stroke-width:1.00; stroke-linecap:butt; stroke-linejoin:miter"
         id="g160">
        <g
           transform="translate(507.9,39.2)"
           style="stroke:none; fill:black; font-family:Times New Roman; font-size:12.00pt; text-anchor:end"
           id="g162">
          <text
             id="text164">
            <tspan
               id="tspan166">tendon 2a</tspan>
          </text>
        </g>
        <path
           d="M516.2,34.7 L558.4,34.7 M55.3,422.4 L60.5,418.6 L65.8,414.8 L71.0,411.0 L76.3,407.2 L81.5,403.3    L86.8,399.5 L92.0,395.7 L97.3,391.9 L102.5,388.1 L107.8,384.3 L113.0,380.5 L118.3,376.7 L123.5,372.9    L128.8,369.1 L134.0,365.2 L139.3,361.4 L144.5,357.6 L149.8,353.8 L155.0,350.0 L160.3,346.2 L165.5,342.4    L170.8,338.6 L176.0,334.8 L181.3,331.0 L186.5,327.1 L191.8,323.3 L197.0,319.5 L202.3,315.7 L207.5,311.9    L212.8,308.1 L218.0,304.3 L223.3,300.5 L228.5,296.7 L233.8,292.8 L239.0,289.0 L244.3,285.2 L249.5,281.4    L254.8,277.6 L260.0,273.8 L265.3,270.0 L270.5,266.2 L275.8,262.4 L281.0,258.6 L286.3,254.7 L291.5,250.9    L296.8,247.1 L302.0,243.3 L307.3,239.5 L312.5,235.7 L317.8,231.9 L323.0,228.1 L328.3,224.3 L333.5,220.4    L338.8,216.6 L344.0,212.8 L349.3,209.0 L354.5,205.2 L359.8,201.4 L365.0,197.6 L370.3,193.8 L375.5,190.0    L380.8,186.2 L386.0,182.3 L391.3,178.5 L396.5,174.7 L401.8,170.9 L407.0,167.1 L412.3,163.3 L417.5,159.5    L422.8,155.7 L428.0,151.9 L433.3,148.1 L438.5,144.2 L443.8,140.4 L449.0,136.6 L454.3,132.8 L459.5,129.0    L464.8,125.2 L470.0,121.4 L475.3,117.6 L480.5,113.8 L485.8,109.9 L491.0,106.1 L496.3,102.3 L501.5,98.5    L506.8,94.7 L512.0,90.9 L517.3,87.1 L522.5,83.3 L527.8,79.5 L533.0,75.7 L538.3,71.8 L543.5,68.0    L548.8,64.2 L554.0,60.4 L559.3,56.6 L564.5,52.8 L569.8,49.0 L575.0,45.2  h0.01"
           id="path168" />
      </g>
    </g>
    <g
       id="gnuplot_plot_2">
      <title
         id="title171">gnuplot_plot_2</title>
      <g
         style="fill:none; color:gray; stroke:currentColor; stroke-width:1.00; stroke-linecap:butt; stroke-linejoin:miter"
         id="g173">
        <g
           transform="translate(507.9,57.2)"
           style="stroke:none; fill:black; font-family:Times New Roman; font-size:12.00pt; text-anchor:end"
           id="g175">
          <text
             id="text177">
            <tspan
               id="tspan179">tendon 2b</tspan>
          </text>
        </g>
        <path
           stroke-dasharray=" 2,4"
           d="M516.2,52.7 L558.4,52.7 M55.3,422.4 L60.5,420.2 L65.8,418.1 L71.0,415.9 L76.3,413.7 L81.5,411.6    L86.8,409.4 L92.0,407.2 L97.3,405.0 L102.5,402.9 L107.8,400.7 L113.0,398.5 L118.3,396.4 L123.5,394.2    L128.8,392.0 L134.0,389.9 L139.3,387.7 L144.5,385.5 L149.8,383.4 L155.0,381.2 L160.3,379.0 L165.5,376.9    L170.8,374.7 L176.0,372.5 L181.3,370.3 L186.5,368.2 L191.8,366.0 L197.0,363.8 L202.3,361.7 L207.5,359.5    L212.8,357.3 L218.0,355.2 L223.3,353.0 L228.5,350.8 L233.8,348.7 L239.0,346.5 L244.3,344.3 L249.5,342.2    L254.8,340.0 L260.0,337.8 L265.3,335.6 L270.5,333.5 L275.8,331.3 L281.0,329.1 L286.3,327.0 L291.5,324.8    L296.8,322.6 L302.0,320.5 L307.3,318.3 L312.5,316.1 L317.8,314.0 L323.0,311.8 L328.3,309.6 L333.5,307.5    L338.8,305.3 L344.0,303.1 L349.3,300.9 L354.5,298.8 L359.8,296.6 L365.0,294.4 L370.3,292.3 L375.5,290.1    L380.8,287.9 L386.0,285.8 L391.3,283.6 L396.5,281.4 L401.8,279.3 L407.0,277.1 L412.3,274.9 L417.5,272.8    L422.8,270.6 L428.0,268.4 L433.3,266.2 L438.5,264.1 L443.8,261.9 L449.0,259.7 L454.3,257.6 L459.5,255.4    L464.8,253.2 L470.0,251.1 L475.3,248.9 L480.5,246.7 L485.8,244.6 L491.0,242.4 L496.3,240.2 L501.5,238.1    L506.8,235.9 L512.0,233.7 L517.3,231.5 L522.5,229.4 L527.8,227.2 L533.0,225.0 L538.3,222.9 L543.5,220.7    L548.8,218.5 L554.0,216.4 L559.3,214.2 L564.5,212.0 L569.8,209.9 L575.0,207.7  h0.01"
           id="path181" />
      </g>
    </g>
    <g
       style="fill:none; color:black; stroke:currentColor; stroke-width:1.00; stroke-linecap:butt; stroke-linejoin:miter"
       id="g183">
      <path
         stroke="black"
         d="M55.3,16.7 L55.3,422.4 L575.0,422.4 L575.0,16.7 L55.3,16.7 Z  h0.01"
         id="path185" />
    </g>
  </g>
</svg>
