<?xml version="1.0" encoding="UTF-8" standalone="no"?>
<svg
   xmlns:dc="http://purl.org/dc/elements/1.1/"
   xmlns:cc="http://creativecommons.org/ns#"
   xmlns:rdf="http://www.w3.org/1999/02/22-rdf-syntax-ns#"
   xmlns:svg="http://www.w3.org/2000/svg"
   xmlns="http://www.w3.org/2000/svg"
   xmlns:xlink="http://www.w3.org/1999/xlink"
   xmlns:sodipodi="http://sodipodi.sourceforge.net/DTD/sodipodi-0.dtd"
   xmlns:inkscape="http://www.inkscape.org/namespaces/inkscape"
   width="600"
   height="480"
   viewBox="0 0 600 480"
   id="svg2"
   version="1.1"
   inkscape:version="0.48.2 r9819"
   sodipodi:docname="threshold_angle.svg">
  <metadata
     id="metadata199">
    <rdf:RDF>
      <cc:Work
         rdf:about="">
        <dc:format>image/svg+xml</dc:format>
        <dc:type
           rdf:resource="http://purl.org/dc/dcmitype/StillImage" />
      </cc:Work>
    </rdf:RDF>
  </metadata>
  <defs
     id="defs197" />
  <sodipodi:namedview
     pagecolor="#ffffff"
     bordercolor="#666666"
     borderopacity="1"
     objecttolerance="10"
     gridtolerance="10"
     guidetolerance="10"
     inkscape:pageopacity="0"
     inkscape:pageshadow="2"
     inkscape:window-width="640"
     inkscape:window-height="480"
     id="namedview195"
     showgrid="false"
     inkscape:zoom="2.7812867"
     inkscape:cx="502.07362"
     inkscape:cy="413.34368"
     inkscape:window-x="0"
     inkscape:window-y="0"
     inkscape:window-maximized="0"
     inkscape:current-layer="gnuplot_canvas" />
  <title
     id="title4">Gnuplot</title>
  <desc
     id="desc6">Produced by GNUPLOT 4.6 patchlevel 3 </desc>
  <g
     id="gnuplot_canvas">
    <rect
       x="0"
       y="0"
       width="600"
       height="480"
       fill="none"
       id="rect9" />
    <defs
       id="defs11">
      <circle
         id="gpDot"
         r="0.5"
         stroke-width="0.5" />
      <path
         id="gpPt0"
         stroke-width="0.222"
         stroke="currentColor"
         d="M-1,0 h2 M0,-1 v2" />
      <path
         id="gpPt1"
         stroke-width="0.222"
         stroke="currentColor"
         d="M-1,-1 L1,1 M1,-1 L-1,1" />
      <path
         id="gpPt2"
         stroke-width="0.222"
         stroke="currentColor"
         d="M-1,0 L1,0 M0,-1 L0,1 M-1,-1 L1,1 M-1,1 L1,-1" />
      <rect
         id="gpPt3"
         stroke-width="0.222"
         stroke="currentColor"
         x="-1"
         y="-1"
         width="2"
         height="2" />
      <rect
         id="gpPt4"
         stroke-width="0.222"
         stroke="currentColor"
         fill="currentColor"
         x="-1"
         y="-1"
         width="2"
         height="2" />
      <circle
         id="gpPt5"
         stroke-width="0.222"
         stroke="currentColor"
         cx="0"
         cy="0"
         r="1" />
      <use
         xlink:href="#gpPt5"
         id="gpPt6"
         fill="currentColor"
         stroke="none" />
      <path
         id="gpPt7"
         stroke-width="0.222"
         stroke="currentColor"
         d="M0,-1.33 L-1.33,0.67 L1.33,0.67 z" />
      <use
         xlink:href="#gpPt7"
         id="gpPt8"
         fill="currentColor"
         stroke="none" />
      <use
         xlink:href="#gpPt7"
         id="gpPt9"
         stroke="currentColor"
         transform="rotate(180)" />
      <use
         xlink:href="#gpPt9"
         id="gpPt10"
         fill="currentColor"
         stroke="none" />
      <use
         xlink:href="#gpPt3"
         id="gpPt11"
         stroke="currentColor"
         transform="rotate(45)" />
      <use
         xlink:href="#gpPt11"
         id="gpPt12"
         fill="currentColor"
         stroke="none" />
    </defs>
    <g
       style="fill:none; color:white; stroke:currentColor; stroke-width:1.00; stroke-linecap:butt; stroke-linejoin:miter"
       id="g27" />
    <g
       style="fill:none; color:black; stroke:currentColor; stroke-width:1.00; stroke-linecap:butt; stroke-linejoin:miter"
       id="g29">
      <path
         stroke="black"
         d="M71.9,422.4 L80.9,422.4 M575.0,422.4 L566.0,422.4  h0.01"
         id="path31" />
      <g
         transform="translate(63.6,426.9)"
         style="stroke:none; fill:black; font-family:Times New Roman; font-size:12.00pt; text-anchor:end"
         id="g33">
        <text
           id="text35">
          <tspan
             id="tspan37">-1</tspan>
        </text>
      </g>
      <path
         stroke="black"
         d="M71.9,364.4 L80.9,364.4 M575.0,364.4 L566.0,364.4  h0.01"
         id="path39" />
      <g
         transform="translate(63.6,368.9)"
         style="stroke:none; fill:black; font-family:Times New Roman; font-size:12.00pt; text-anchor:end"
         id="g41">
        <text
           id="text43">
          <tspan
             id="tspan45">-0.5</tspan>
        </text>
      </g>
      <path
         stroke="black"
         d="M71.9,306.5 L80.9,306.5 M575.0,306.5 L566.0,306.5  h0.01"
         id="path47" />
      <g
         transform="translate(63.6,311.0)"
         style="stroke:none; fill:black; font-family:Times New Roman; font-size:12.00pt; text-anchor:end"
         id="g49">
        <text
           id="text51">
          <tspan
             id="tspan53"> 0</tspan>
        </text>
      </g>
      <path
         stroke="black"
         d="M71.9,248.5 L80.9,248.5 M575.0,248.5 L566.0,248.5  h0.01"
         id="path55" />
      <g
         transform="translate(63.6,253.0)"
         style="stroke:none; fill:black; font-family:Times New Roman; font-size:12.00pt; text-anchor:end"
         id="g57">
        <text
           id="text59">
          <tspan
             id="tspan61"> 0.5</tspan>
        </text>
      </g>
      <path
         stroke="black"
         d="M71.9,190.6 L80.9,190.6 M575.0,190.6 L566.0,190.6  h0.01"
         id="path63" />
      <g
         transform="translate(63.6,195.1)"
         style="stroke:none; fill:black; font-family:Times New Roman; font-size:12.00pt; text-anchor:end"
         id="g65">
        <text
           id="text67">
          <tspan
             id="tspan69"> 1</tspan>
        </text>
      </g>
      <path
         stroke="black"
         d="M71.9,132.6 L80.9,132.6 M575.0,132.6 L566.0,132.6  h0.01"
         id="path71" />
      <g
         transform="translate(63.6,137.1)"
         style="stroke:none; fill:black; font-family:Times New Roman; font-size:12.00pt; text-anchor:end"
         id="g73">
        <text
           id="text75">
          <tspan
             id="tspan77"> 1.5</tspan>
        </text>
      </g>
      <path
         stroke="black"
         d="M71.9,74.7 L80.9,74.7 M575.0,74.7 L566.0,74.7  h0.01"
         id="path79" />
      <g
         transform="translate(63.6,79.2)"
         style="stroke:none; fill:black; font-family:Times New Roman; font-size:12.00pt; text-anchor:end"
         id="g81">
        <text
           id="text83">
          <tspan
             id="tspan85"> 2</tspan>
        </text>
      </g>
      <path
         stroke="black"
         d="M71.9,16.7 L80.9,16.7 M575.0,16.7 L566.0,16.7  h0.01"
         id="path87" />
      <g
         transform="translate(63.6,21.2)"
         style="stroke:none; fill:black; font-family:Times New Roman; font-size:12.00pt; text-anchor:end"
         id="g89">
        <text
           id="text91">
          <tspan
             id="tspan93"> 2.5</tspan>
        </text>
      </g>
      <path
         stroke="black"
         d="M71.9,422.4 L71.9,413.4 M71.9,16.7 L71.9,25.7  h0.01"
         id="path95" />
      <g
         transform="translate(71.9,444.9)"
         style="stroke:none; fill:black; font-family:Times New Roman; font-size:12.00pt; text-anchor:middle"
         id="g97">
        <text
           id="text99">
          <tspan
             id="tspan101"> 0</tspan>
        </text>
      </g>
      <path
         stroke="black"
         d="M155.8,422.4 L155.8,413.4 M155.8,16.7 L155.8,25.7  h0.01"
         id="path103" />
      <g
         transform="translate(155.8,444.9)"
         style="stroke:none; fill:black; font-family:Times New Roman; font-size:12.00pt; text-anchor:middle"
         id="g105">
        <text
           id="text107">
          <tspan
             id="tspan109"> 5</tspan>
        </text>
      </g>
      <path
         stroke="black"
         d="M239.6,422.4 L239.6,413.4 M239.6,16.7 L239.6,25.7  h0.01"
         id="path111" />
      <g
         transform="translate(239.6,444.9)"
         style="stroke:none; fill:black; font-family:Times New Roman; font-size:12.00pt; text-anchor:middle"
         id="g113">
        <text
           id="text115">
          <tspan
             id="tspan117"> 10</tspan>
        </text>
      </g>
      <path
         stroke="black"
         d="M323.5,422.4 L323.5,413.4 M323.5,16.7 L323.5,25.7  h0.01"
         id="path119" />
      <g
         transform="translate(323.5,444.9)"
         style="stroke:none; fill:black; font-family:Times New Roman; font-size:12.00pt; text-anchor:middle"
         id="g121">
        <text
           id="text123">
          <tspan
             id="tspan125"> 15</tspan>
        </text>
      </g>
      <path
         stroke="black"
         d="M407.3,422.4 L407.3,413.4 M407.3,16.7 L407.3,25.7  h0.01"
         id="path127" />
      <g
         transform="translate(407.3,444.9)"
         style="stroke:none; fill:black; font-family:Times New Roman; font-size:12.00pt; text-anchor:middle"
         id="g129">
        <text
           id="text131">
          <tspan
             id="tspan133"> 20</tspan>
        </text>
      </g>
      <path
         stroke="black"
         d="M491.2,422.4 L491.2,413.4 M491.2,16.7 L491.2,25.7  h0.01"
         id="path135" />
      <g
         transform="translate(491.2,444.9)"
         style="stroke:none; fill:black; font-family:Times New Roman; font-size:12.00pt; text-anchor:middle"
         id="g137">
        <text
           id="text139">
          <tspan
             id="tspan141"> 25</tspan>
        </text>
      </g>
      <path
         stroke="black"
         d="M575.0,422.4 L575.0,413.4 M575.0,16.7 L575.0,25.7  h0.01"
         id="path143" />
      <g
         transform="translate(575.0,444.9)"
         style="stroke:none; fill:black; font-family:Times New Roman; font-size:12.00pt; text-anchor:middle"
         id="g145">
        <text
           id="text147">
          <tspan
             id="tspan149"> 30</tspan>
        </text>
      </g>
      <path
         stroke="black"
         d="M71.9,16.7 L71.9,422.4 L575.0,422.4 L575.0,16.7 L71.9,16.7 Z  h0.01"
         id="path151" />
      <g
         transform="translate(17.6,219.6) rotate(270)"
         style="stroke:none; fill:black; font-family:Times New Roman; font-size:12.00pt; text-anchor:middle"
         id="g153">
        <text
           id="text155">
          <tspan
             id="tspan157">bias fonce [N]</tspan>
        </text>
      </g>
      <g
         transform="translate(323.4,471.9)"
         style="stroke:none; fill:black; font-family:Times New Roman; font-size:12.00pt; text-anchor:middle"
         id="g159">
        <text
           id="text161">
          <tspan
             id="tspan163">theta2 [deg]</tspan>
        </text>
      </g>
    </g>
    <g
       id="gnuplot_plot_1">
      <title
         id="title166">gnuplot_plot_1</title>
      <g
         style="fill:none; color:red; stroke:currentColor; stroke-width:1.00; stroke-linecap:butt; stroke-linejoin:miter"
         id="g168">
        <g
           transform="translate(507.9,39.2)"
           style="stroke:none; fill:black; font-family:Times New Roman; font-size:12.00pt; text-anchor:end"
           id="g170">
          <text
             id="text172">
            <tspan
               id="tspan174">tendon 2a</tspan>
          </text>
        </g>
        <path
           d="M516.2,34.7 L558.4,34.7 M71.9,30.9 L77.0,31.0 L82.1,31.0 L87.1,31.0 L92.2,31.1 L97.3,31.1    L102.4,31.2 L107.5,31.3 L112.6,31.4 L117.6,31.5 L122.7,31.6 L127.8,31.7 L132.9,31.9 L138.0,32.1    L143.0,32.2 L148.1,32.4 L153.2,32.6 L158.3,32.9 L163.4,33.1 L168.5,33.3 L173.5,33.6 L178.6,33.9    L183.7,34.2 L188.8,34.5 L193.9,34.8 L198.9,35.1 L204.0,35.5 L209.1,35.8 L214.2,36.2 L219.3,36.6    L224.4,37.0 L229.4,37.4 L234.5,37.8 L239.6,38.3 L244.7,38.7 L249.8,39.2 L254.8,39.7 L259.9,40.2    L265.0,40.7 L270.1,41.3 L275.2,41.8 L280.3,42.4 L285.3,43.0 L290.4,43.5 L295.5,44.2 L300.6,44.8    L305.7,45.4 L310.7,46.1 L315.8,46.8 L320.9,47.5 L326.0,48.2 L331.1,48.9 L336.2,49.6 L341.2,50.4    L346.3,51.2 L351.4,52.0 L356.5,52.8 L361.6,53.6 L366.6,54.4 L371.7,55.3 L376.8,56.2 L381.9,57.1    L387.0,58.0 L392.1,58.9 L397.1,59.9 L402.2,60.9 L407.3,61.8 L412.4,62.9 L417.5,63.9 L422.5,64.9    L427.6,66.0 L432.7,67.1 L437.8,68.2 L442.9,69.3 L448.0,70.4 L453.0,71.6 L458.1,72.8 L463.2,74.0    L468.3,75.2 L473.4,76.4 L478.4,77.7 L483.5,79.0 L488.6,80.3 L493.7,81.6 L498.8,82.9 L503.9,84.3    L508.9,85.7 L514.0,87.1 L519.1,88.5 L524.2,90.0 L529.3,91.4 L534.3,92.9 L539.4,94.4 L544.5,96.0    L549.6,97.5 L554.7,99.1 L559.8,100.7 L564.8,102.3 L569.9,104.0 L575.0,105.6  h0.01"
           id="path176" />
      </g>
    </g>
    <g
       id="gnuplot_plot_2">
      <title
         id="title179">gnuplot_plot_2</title>
      <g
         style="fill:none; color:gray; stroke:currentColor; stroke-width:1.00; stroke-linecap:butt; stroke-linejoin:miter"
         id="g181">
        <g
           transform="translate(507.9,57.2)"
           style="stroke:none; fill:black; font-family:Times New Roman; font-size:12.00pt; text-anchor:end"
           id="g183">
          <text
             id="text185">
            <tspan
               id="tspan187">tendon 2b</tspan>
          </text>
        </g>
        <path
           stroke-dasharray=" 2,4"
           d="M516.2,52.7 L558.4,52.7 M71.9,69.4 L77.0,69.4 L82.1,69.5 L87.1,69.7 L92.2,70.0 L97.3,70.4    L102.4,70.8 L107.5,71.3 L112.6,71.9 L117.6,72.5 L122.7,73.3 L127.8,74.1 L132.9,75.0 L138.0,75.9    L143.0,77.0 L148.1,78.1 L153.2,79.3 L158.3,80.5 L163.4,81.9 L168.5,83.3 L173.5,84.8 L178.6,86.3    L183.7,88.0 L188.8,89.7 L193.9,91.5 L198.9,93.3 L204.0,95.2 L209.1,97.2 L214.2,99.3 L219.3,101.4    L224.4,103.6 L229.4,105.9 L234.5,108.2 L239.6,110.6 L244.7,113.1 L249.8,115.6 L254.8,118.2 L259.9,120.9    L265.0,123.6 L270.1,126.4 L275.2,129.2 L280.3,132.2 L285.3,135.1 L290.4,138.2 L295.5,141.3 L300.6,144.4    L305.7,147.6 L310.7,150.9 L315.8,154.2 L320.9,157.6 L326.0,161.0 L331.1,164.4 L336.2,168.0 L341.2,171.5    L346.3,175.2 L351.4,178.8 L356.5,182.6 L361.6,186.3 L366.6,190.1 L371.7,194.0 L376.8,197.9 L381.9,201.8    L387.0,205.8 L392.1,209.8 L397.1,213.9 L402.2,218.0 L407.3,222.1 L412.4,226.3 L417.5,230.5 L422.5,234.7    L427.6,239.0 L432.7,243.3 L437.8,247.6 L442.9,252.0 L448.0,256.4 L453.0,260.8 L458.1,265.2 L463.2,269.6    L468.3,274.1 L473.4,278.6 L478.4,283.1 L483.5,287.6 L488.6,292.2 L493.7,296.8 L498.8,301.3 L503.9,305.9    L508.9,310.5 L514.0,315.1 L519.1,319.8 L524.2,324.4 L529.3,329.0 L534.3,333.6 L539.4,338.3 L544.5,342.9    L549.6,347.6 L554.7,352.2 L559.8,356.9 L564.8,361.5 L569.9,366.1 L575.0,370.8  h0.01"
           id="path189" />
      </g>
    </g>
    <g
       style="fill:none; color:black; stroke:currentColor; stroke-width:1.00; stroke-linecap:butt; stroke-linejoin:miter"
       id="g191">
      <path
         stroke="black"
         d="M71.9,16.7 L71.9,422.4 L575.0,422.4 L575.0,16.7 L71.9,16.7 Z  h0.01"
         id="path193" />
    </g>
  </g>
</svg>
