<?xml version="1.0" encoding="UTF-8" standalone="no"?>
<svg
   xmlns:dc="http://purl.org/dc/elements/1.1/"
   xmlns:cc="http://creativecommons.org/ns#"
   xmlns:rdf="http://www.w3.org/1999/02/22-rdf-syntax-ns#"
   xmlns:svg="http://www.w3.org/2000/svg"
   xmlns="http://www.w3.org/2000/svg"
   xmlns:xlink="http://www.w3.org/1999/xlink"
   xmlns:sodipodi="http://sodipodi.sourceforge.net/DTD/sodipodi-0.dtd"
   xmlns:inkscape="http://www.inkscape.org/namespaces/inkscape"
   width="600"
   height="480"
   viewBox="0 0 600 480"
   id="svg2"
   version="1.1"
   inkscape:version="0.48.2 r9819"
   sodipodi:docname="1728r60b160.csv.svg">
  <metadata
     id="metadata247">
    <rdf:RDF>
      <cc:Work
         rdf:about="">
        <dc:format>image/svg+xml</dc:format>
        <dc:type
           rdf:resource="http://purl.org/dc/dcmitype/StillImage" />
      </cc:Work>
    </rdf:RDF>
  </metadata>
  <defs
     id="defs245" />
  <sodipodi:namedview
     pagecolor="#ffffff"
     bordercolor="#666666"
     borderopacity="1"
     objecttolerance="10"
     gridtolerance="10"
     guidetolerance="10"
     inkscape:pageopacity="0"
     inkscape:pageshadow="2"
     inkscape:window-width="889"
     inkscape:window-height="663"
     id="namedview243"
     showgrid="false"
     inkscape:zoom="0.49166667"
     inkscape:cx="300"
     inkscape:cy="240"
     inkscape:window-x="0"
     inkscape:window-y="0"
     inkscape:window-maximized="0"
     inkscape:current-layer="svg2" />
  <title
     id="title4">Gnuplot</title>
  <desc
     id="desc6">Produced by GNUPLOT 4.6 patchlevel 3 </desc>
  <g
     id="gnuplot_canvas">
    <rect
       x="0"
       y="0"
       width="600"
       height="480"
       fill="none"
       id="rect9" />
    <defs
       id="defs11">
      <circle
         id="gpDot"
         r="0.5"
         stroke-width="0.5" />
      <path
         id="gpPt0"
         stroke-width="0.222"
         stroke="currentColor"
         d="M-1,0 h2 M0,-1 v2" />
      <path
         id="gpPt1"
         stroke-width="0.222"
         stroke="currentColor"
         d="M-1,-1 L1,1 M1,-1 L-1,1" />
      <path
         id="gpPt2"
         stroke-width="0.222"
         stroke="currentColor"
         d="M-1,0 L1,0 M0,-1 L0,1 M-1,-1 L1,1 M-1,1 L1,-1" />
      <rect
         id="gpPt3"
         stroke-width="0.222"
         stroke="currentColor"
         x="-1"
         y="-1"
         width="2"
         height="2" />
      <rect
         id="gpPt4"
         stroke-width="0.222"
         stroke="currentColor"
         fill="currentColor"
         x="-1"
         y="-1"
         width="2"
         height="2" />
      <circle
         id="gpPt5"
         stroke-width="0.222"
         stroke="currentColor"
         cx="0"
         cy="0"
         r="1" />
      <use
         xlink:href="#gpPt5"
         id="gpPt6"
         fill="currentColor"
         stroke="none" />
      <path
         id="gpPt7"
         stroke-width="0.222"
         stroke="currentColor"
         d="M0,-1.33 L-1.33,0.67 L1.33,0.67 z" />
      <use
         xlink:href="#gpPt7"
         id="gpPt8"
         fill="currentColor"
         stroke="none" />
      <use
         xlink:href="#gpPt7"
         id="gpPt9"
         stroke="currentColor"
         transform="rotate(180)" />
      <use
         xlink:href="#gpPt9"
         id="gpPt10"
         fill="currentColor"
         stroke="none" />
      <use
         xlink:href="#gpPt3"
         id="gpPt11"
         stroke="currentColor"
         transform="rotate(45)" />
      <use
         xlink:href="#gpPt11"
         id="gpPt12"
         fill="currentColor"
         stroke="none" />
    </defs>
    <g
       style="fill:none; color:white; stroke:currentColor; stroke-width:1.00; stroke-linecap:butt; stroke-linejoin:miter"
       id="g27" />
    <g
       style="fill:none; color:black; stroke:currentColor; stroke-width:1.00; stroke-linecap:butt; stroke-linejoin:miter"
       id="g29">
      <path
         stroke="black"
         d="M63.6,422.4 L72.6,422.4 M507.2,422.4 L498.2,422.4  h0.01"
         id="path31" />
      <g
         transform="translate(55.3,426.9)"
         style="stroke:none; fill:black; font-family:Times New Roman; font-size:12.00pt; text-anchor:end"
         id="g33">
        <text
           id="text35">
          <tspan
             id="tspan37"> 0</tspan>
        </text>
      </g>
      <path
         stroke="black"
         d="M63.6,341.3 L72.6,341.3 M507.2,341.3 L498.2,341.3  h0.01"
         id="path39" />
      <g
         transform="translate(55.3,345.8)"
         style="stroke:none; fill:black; font-family:Times New Roman; font-size:12.00pt; text-anchor:end"
         id="g41">
        <text
           id="text43">
          <tspan
             id="tspan45"> 5</tspan>
        </text>
      </g>
      <path
         stroke="black"
         d="M63.6,260.1 L72.6,260.1 M507.2,260.1 L498.2,260.1  h0.01"
         id="path47" />
      <g
         transform="translate(55.3,264.6)"
         style="stroke:none; fill:black; font-family:Times New Roman; font-size:12.00pt; text-anchor:end"
         id="g49">
        <text
           id="text51">
          <tspan
             id="tspan53"> 10</tspan>
        </text>
      </g>
      <path
         stroke="black"
         d="M63.6,179.0 L72.6,179.0 M507.2,179.0 L498.2,179.0  h0.01"
         id="path55" />
      <g
         transform="translate(55.3,183.5)"
         style="stroke:none; fill:black; font-family:Times New Roman; font-size:12.00pt; text-anchor:end"
         id="g57">
        <text
           id="text59">
          <tspan
             id="tspan61"> 15</tspan>
        </text>
      </g>
      <path
         stroke="black"
         d="M63.6,97.8 L72.6,97.8 M507.2,97.8 L498.2,97.8  h0.01"
         id="path63" />
      <g
         transform="translate(55.3,102.3)"
         style="stroke:none; fill:black; font-family:Times New Roman; font-size:12.00pt; text-anchor:end"
         id="g65">
        <text
           id="text67">
          <tspan
             id="tspan69"> 20</tspan>
        </text>
      </g>
      <path
         stroke="black"
         d="M63.6,16.7 L72.6,16.7 M507.2,16.7 L498.2,16.7  h0.01"
         id="path71" />
      <g
         transform="translate(55.3,21.2)"
         style="stroke:none; fill:black; font-family:Times New Roman; font-size:12.00pt; text-anchor:end"
         id="g73">
        <text
           id="text75">
          <tspan
             id="tspan77"> 25</tspan>
        </text>
      </g>
      <path
         stroke="black"
         d="M63.6,422.4 L63.6,413.4 M63.6,16.7 L63.6,25.7  h0.01"
         id="path79" />
      <g
         transform="translate(63.6,444.9)"
         style="stroke:none; fill:black; font-family:Times New Roman; font-size:12.00pt; text-anchor:middle"
         id="g81">
        <text
           id="text83">
          <tspan
             id="tspan85"> 0</tspan>
        </text>
      </g>
      <path
         stroke="black"
         d="M149.8,422.4 L149.8,413.4 M149.8,16.7 L149.8,25.7  h0.01"
         id="path87" />
      <g
         transform="translate(149.8,444.9)"
         style="stroke:none; fill:black; font-family:Times New Roman; font-size:12.00pt; text-anchor:middle"
         id="g89">
        <text
           id="text91">
          <tspan
             id="tspan93"> 1000</tspan>
        </text>
      </g>
      <path
         stroke="black"
         d="M236.0,422.4 L236.0,413.4 M236.0,16.7 L236.0,25.7  h0.01"
         id="path95" />
      <g
         transform="translate(236.0,444.9)"
         style="stroke:none; fill:black; font-family:Times New Roman; font-size:12.00pt; text-anchor:middle"
         id="g97">
        <text
           id="text99">
          <tspan
             id="tspan101"> 2000</tspan>
        </text>
      </g>
      <path
         stroke="black"
         d="M322.2,422.4 L322.2,413.4 M322.2,16.7 L322.2,25.7  h0.01"
         id="path103" />
      <g
         transform="translate(322.2,444.9)"
         style="stroke:none; fill:black; font-family:Times New Roman; font-size:12.00pt; text-anchor:middle"
         id="g105">
        <text
           id="text107">
          <tspan
             id="tspan109"> 3000</tspan>
        </text>
      </g>
      <path
         stroke="black"
         d="M408.4,422.4 L408.4,413.4 M408.4,16.7 L408.4,25.7  h0.01"
         id="path111" />
      <g
         transform="translate(408.4,444.9)"
         style="stroke:none; fill:black; font-family:Times New Roman; font-size:12.00pt; text-anchor:middle"
         id="g113">
        <text
           id="text115">
          <tspan
             id="tspan117"> 4000</tspan>
        </text>
      </g>
      <path
         stroke="black"
         d="M494.6,422.4 L494.6,413.4 M494.6,16.7 L494.6,25.7  h0.01"
         id="path119" />
      <g
         transform="translate(494.6,444.9)"
         style="stroke:none; fill:black; font-family:Times New Roman; font-size:12.00pt; text-anchor:middle"
         id="g121">
        <text
           id="text123">
          <tspan
             id="tspan125"> 5000</tspan>
        </text>
      </g>
      <path
         stroke="black"
         d="M507.2,381.8 L498.2,381.8  h0.01"
         id="path127" />
      <g
         transform="translate(515.5,386.3)"
         style="stroke:none; fill:black; font-family:Times New Roman; font-size:12.00pt; text-anchor:start"
         id="g129">
        <text
           id="text131">
          <tspan
             id="tspan133"> 1.6</tspan>
        </text>
      </g>
      <path
         stroke="black"
         d="M507.2,300.7 L498.2,300.7  h0.01"
         id="path135" />
      <g
         transform="translate(515.5,305.2)"
         style="stroke:none; fill:black; font-family:Times New Roman; font-size:12.00pt; text-anchor:start"
         id="g137">
        <text
           id="text139">
          <tspan
             id="tspan141"> 1.8</tspan>
        </text>
      </g>
      <path
         stroke="black"
         d="M507.2,219.5 L498.2,219.5  h0.01"
         id="path143" />
      <g
         transform="translate(515.5,224.0)"
         style="stroke:none; fill:black; font-family:Times New Roman; font-size:12.00pt; text-anchor:start"
         id="g145">
        <text
           id="text147">
          <tspan
             id="tspan149"> 2</tspan>
        </text>
      </g>
      <path
         stroke="black"
         d="M507.2,138.4 L498.2,138.4  h0.01"
         id="path151" />
      <g
         transform="translate(515.5,142.9)"
         style="stroke:none; fill:black; font-family:Times New Roman; font-size:12.00pt; text-anchor:start"
         id="g153">
        <text
           id="text155">
          <tspan
             id="tspan157"> 2.2</tspan>
        </text>
      </g>
      <path
         stroke="black"
         d="M507.2,57.3 L498.2,57.3  h0.01"
         id="path159" />
      <g
         transform="translate(515.5,61.8)"
         style="stroke:none; fill:black; font-family:Times New Roman; font-size:12.00pt; text-anchor:start"
         id="g161">
        <text
           id="text163">
          <tspan
             id="tspan165"> 2.4</tspan>
        </text>
      </g>
      <path
         stroke="black"
         d="M63.6,16.7 L63.6,422.4 L507.2,422.4 L507.2,16.7 L63.6,16.7 Z  h0.01"
         id="path167" />
      <g
         transform="translate(17.6,219.6) rotate(270)"
         style="stroke:none; fill:black; font-family:Times New Roman; font-size:12.00pt; text-anchor:middle"
         id="g169">
        <text
           id="text171">
          <tspan
             id="tspan173">encoder angle [deg]</tspan>
        </text>
      </g>
      <g
         transform="translate(570.4,219.6) rotate(270)"
         style="stroke:none; fill:black; font-family:Times New Roman; font-size:12.00pt; text-anchor:middle"
         id="g175">
        <text
           id="text177">
          <tspan
             id="tspan179">bias force [N]</tspan>
        </text>
      </g>
      <g
         transform="translate(285.4,471.9)"
         style="stroke:none; fill:black; font-family:Times New Roman; font-size:12.00pt; text-anchor:middle"
         id="g181">
        <text
           id="text183">
          <tspan
             id="tspan185">time[ms]</tspan>
        </text>
      </g>
    </g>
    <g
       id="gnuplot_plot_1">
      <title
         id="title188">gnuplot_plot_1</title>
      <g
         style="fill:none; color:red; stroke:currentColor; stroke-width:1.00; stroke-linecap:butt; stroke-linejoin:miter"
         id="g190">
        <g
           transform="translate(154.9,354.9)"
           style="stroke:none; fill:black; font-family:Times New Roman; font-size:12.00pt; text-anchor:end"
           id="g192">
          <text
             id="text194">
            <tspan
               id="tspan196">bias force</tspan>
          </text>
        </g>
        <path
           stroke="gray"
           d="M163.2,350.4 L205.4,350.4 M63.6,381.8 L65.0,381.8 L66.4,381.8 L67.9,381.8 L69.3,381.8 L70.8,381.8    L72.2,381.8 L73.7,381.8 L75.1,381.8 L76.6,381.8 L78.0,381.8 L79.5,381.8 L80.9,381.8 L82.4,381.8    L83.8,381.8 L85.3,381.8 L86.7,381.8 L88.2,381.8 L89.6,381.8 L91.1,381.8 L92.5,381.8 L94.0,381.8    L95.4,381.8 L96.9,381.8 L98.3,381.8 L99.8,381.8 L101.2,381.8 L102.7,381.8 L104.1,381.8 L105.6,381.8    L107.0,381.8 L108.5,381.8 L109.9,381.8 L111.4,381.8 L112.8,381.8 L114.3,381.8 L115.7,381.8 L117.2,381.8    L118.6,381.8 L120.1,381.8 L121.5,381.8 L123.0,381.8 L124.4,381.8 L125.8,381.8 L127.3,381.8 L128.7,381.8    L130.2,381.8 L131.6,381.8 L133.1,381.8 L134.5,381.8 L136.0,381.8 L137.4,381.8 L138.9,381.8 L140.3,381.8    L141.8,381.8 L143.2,381.8 L144.7,381.8 L146.1,381.8 L147.6,381.8 L149.0,381.8 L150.5,381.8 L151.9,381.8    L153.4,381.8 L154.8,381.8 L156.3,381.8 L157.7,381.8 L159.2,381.8 L160.6,381.8 L162.1,381.8 L163.5,381.8    L165.0,381.8 L166.4,381.8 L167.9,381.8 L169.3,381.8 L170.8,381.8 L172.2,381.8 L173.7,381.8 L175.1,381.8    L176.6,381.8 L178.0,381.8 L179.5,381.8 L180.9,381.8 L182.4,381.8 L183.8,381.8 L185.3,381.8 L186.7,381.8    L188.2,381.8 L189.6,381.8 L191.1,381.8 L192.5,381.8 L194.0,381.8 L195.4,381.8 L196.9,381.8 L198.3,381.8    L199.8,381.8 L201.2,381.8 L202.7,381.8 L204.1,381.8 L205.6,381.8 L207.0,381.8 L208.5,381.8 L209.9,381.8    L211.4,381.8 L212.8,381.8 L214.3,381.8 L215.7,381.8 L217.2,381.8 L218.6,381.8 L220.1,381.8 L221.5,381.8    L223.0,381.8 L224.4,381.8 L225.9,381.8 L227.3,381.8 L228.8,381.8 L230.2,381.8 L231.7,381.8 L233.1,381.8    L234.6,381.8 L236.0,381.8 L237.5,381.8 L238.9,381.8 L240.4,381.8 L241.8,381.8 L243.3,381.8 L244.7,381.8    L246.2,381.8 L247.6,381.8 L249.1,381.8 L250.5,381.8 L252.0,381.8 L253.4,381.8 L254.9,381.8 L256.3,381.8    L257.8,381.8 L259.2,381.8 L260.7,381.8 L262.1,381.8 L263.6,381.8 L265.0,381.8 L266.5,381.8 L267.9,381.8    L269.4,381.8 L270.8,381.8 L272.3,381.8 L273.7,381.8 L275.2,381.8 L276.6,381.8 L278.1,381.8 L279.5,381.8    L281.0,381.8 L282.4,381.8 L283.9,381.8 L285.3,381.8 L286.8,381.8 L288.2,381.8 L289.7,381.8 L291.1,381.8    L292.6,381.8 L294.0,381.8 L295.5,381.8 L296.9,381.8 L298.4,381.8 L299.8,381.8 L301.3,381.8 L302.7,381.8    L304.2,381.8 L305.6,381.8 L307.1,381.8 L308.5,381.8 L310.0,381.8 L311.4,381.8 L312.9,381.8 L314.3,381.8    L315.8,381.8 L317.2,381.8 L318.7,381.8 L320.1,381.8 L321.6,381.8 L323.0,381.8 L324.5,381.8 L325.9,381.8    L327.4,381.8 L328.8,381.8 L330.3,381.8 L331.7,381.8 L333.2,381.8 L334.6,381.8 L336.1,381.8 L337.5,381.8    L339.0,381.8 L340.4,381.8 L341.9,381.8 L343.3,381.8 L344.8,381.8 L346.2,381.8 L347.6,381.8 L349.1,381.8    L350.5,381.8 L352.0,381.8 L353.4,381.8 L354.9,381.8 L356.3,381.8 L357.8,381.8 L359.2,381.8 L360.7,381.8    L362.1,381.8 L363.6,381.8 L365.0,381.8 L366.5,381.8 L367.9,381.8 L369.4,381.8 L370.8,381.8 L372.3,381.8    L373.7,381.8 L375.2,381.8 L376.6,381.8 L378.1,381.8 L379.5,381.8 L381.0,381.8 L382.4,381.8 L383.9,381.8    L385.3,381.8 L386.8,381.8 L388.2,381.8 L389.7,381.8 L391.1,381.8 L392.6,381.8 L394.0,381.8 L395.5,381.8    L396.9,381.8 L398.4,381.8 L399.8,381.8 L401.3,381.8 L402.7,381.8 L404.2,381.8 L405.6,381.8 L407.1,381.8    L408.5,381.8 L410.0,381.8 L411.4,381.8 L412.9,381.8 L414.3,381.8 L415.8,381.8 L417.2,381.8 L418.7,381.8    L420.1,381.8 L421.6,381.8 L423.0,381.8 L424.5,381.8 L425.9,381.8 L427.4,381.8 L428.8,381.8 L430.3,381.8    L431.7,381.8 L433.2,381.8 L434.6,381.8 L436.1,381.8 L437.5,381.8 L439.0,381.8 L440.4,381.8 L441.9,381.8    L443.3,381.8 L444.8,381.8 L446.2,381.8 L447.7,381.8 L449.1,381.8 L450.6,381.8 L452.0,381.8 L453.5,381.8    L454.9,381.8 L456.4,381.8 L457.8,381.8 L459.3,381.8 L460.7,381.8 L462.2,381.8 L463.6,381.8 L465.1,381.8    L466.5,381.8 L468.0,381.8 L469.4,381.8 L470.9,381.8 L472.3,381.8 L473.8,381.8 L475.2,381.8 L476.7,381.8    L478.1,381.8 L479.6,381.8 L481.0,381.8 L482.5,381.8 L483.9,381.8 L485.4,381.8 L486.8,381.8 L488.3,381.8    L489.7,381.8 L491.2,381.8 L492.6,381.8 L494.1,381.8 L495.5,381.8 L497.0,381.8 L498.4,381.8 L499.9,381.8    L501.3,381.8 L502.8,381.8 L504.2,381.8 L505.7,381.8  h0.01"
           id="path198" />
      </g>
    </g>
    <g
       id="gnuplot_plot_2">
      <title
         id="title201">gnuplot_plot_2</title>
      <g
         style="fill:none; color:blue; stroke:currentColor; stroke-width:1.00; stroke-linecap:butt; stroke-linejoin:miter"
         id="g203">
        <g
           transform="translate(154.9,372.9)"
           style="stroke:none; fill:black; font-family:Times New Roman; font-size:12.00pt; text-anchor:end"
           id="g205">
          <text
             id="text207">
            <tspan
               id="tspan209">encoder1</tspan>
          </text>
        </g>
        <path
           d="M163.2,368.4 L205.4,368.4 M63.6,422.4 L65.0,422.4 L66.4,422.4 L67.9,414.3 L69.3,402.1 L70.8,385.9    L72.2,373.7 L73.7,361.5 L75.1,349.4 L76.6,333.1 L78.0,321.0 L79.5,308.8 L80.9,308.8 L82.4,308.8    L83.8,304.7 L85.3,304.7 L86.7,304.7 L88.2,304.7 L89.6,304.7 L91.1,300.7 L92.5,296.6 L94.0,292.6    L95.4,288.5 L96.9,280.4 L98.3,276.3 L99.8,272.3 L101.2,264.2 L102.7,256.1 L104.1,252.0 L105.6,243.9    L107.0,231.7 L108.5,223.6 L109.9,215.5 L111.4,207.4 L112.8,195.2 L114.3,187.1 L115.7,174.9 L117.2,162.8    L118.6,142.5 L120.1,126.2 L121.5,110.0 L123.0,93.8 L124.4,85.7 L125.8,81.6 L127.3,81.6 L128.7,81.6    L130.2,81.6 L131.6,81.6 L133.1,81.6 L134.5,81.6 L136.0,81.6 L137.4,81.6 L138.9,81.6 L140.3,81.6    L141.8,81.6 L143.2,81.6 L144.7,81.6 L146.1,81.6 L147.6,81.6 L149.0,81.6 L150.5,81.6 L151.9,81.6    L153.4,81.6 L154.8,81.6 L156.3,81.6 L157.7,81.6 L159.2,81.6 L160.6,81.6 L162.1,81.6 L163.5,81.6    L165.0,81.6 L166.4,81.6 L167.9,81.6 L169.3,81.6 L170.8,81.6 L172.2,81.6 L173.7,81.6 L175.1,81.6    L176.6,81.6 L178.0,81.6 L179.5,81.6 L180.9,81.6 L182.4,81.6 L183.8,81.6 L185.3,81.6 L186.7,81.6    L188.2,81.6 L189.6,81.6 L191.1,81.6 L192.5,81.6 L194.0,81.6 L195.4,81.6 L196.9,81.6 L198.3,81.6    L199.8,81.6 L201.2,81.6 L202.7,81.6 L204.1,81.6 L205.6,81.6 L207.0,81.6 L208.5,81.6 L209.9,81.6    L211.4,81.6 L212.8,81.6 L214.3,81.6 L215.7,81.6 L217.2,81.6 L218.6,81.6 L220.1,81.6 L221.5,81.6    L223.0,81.6 L224.4,81.6 L225.9,81.6 L227.3,81.6 L228.8,81.6 L230.2,81.6 L231.7,81.6 L233.1,81.6    L234.6,81.6 L236.0,81.6 L237.5,81.6 L238.9,81.6 L240.4,81.6 L241.8,81.6 L243.3,81.6 L244.7,81.6    L246.2,81.6 L247.6,81.6 L249.1,81.6 L250.5,81.6 L252.0,81.6 L253.4,81.6 L254.9,81.6 L256.3,81.6    L257.8,81.6 L259.2,81.6 L260.7,81.6 L262.1,81.6 L263.6,81.6 L265.0,81.6 L266.5,81.6 L267.9,81.6    L269.4,81.6 L270.8,81.6 L272.3,81.6 L273.7,81.6 L275.2,81.6 L276.6,81.6 L278.1,81.6 L279.5,81.6    L281.0,81.6 L282.4,81.6 L283.9,81.6 L285.3,81.6 L286.8,81.6 L288.2,81.6 L289.7,81.6 L291.1,81.6    L292.6,81.6 L294.0,81.6 L295.5,81.6 L296.9,81.6 L298.4,81.6 L299.8,81.6 L301.3,81.6 L302.7,81.6    L304.2,81.6 L305.6,81.6 L307.1,81.6 L308.5,81.6 L310.0,81.6 L311.4,81.6 L312.9,81.6 L314.3,81.6    L315.8,81.6 L317.2,81.6 L318.7,81.6 L320.1,81.6 L321.6,81.6 L323.0,81.6 L324.5,81.6 L325.9,81.6    L327.4,81.6 L328.8,81.6 L330.3,81.6 L331.7,81.6 L333.2,81.6 L334.6,81.6 L336.1,81.6 L337.5,81.6    L339.0,81.6 L340.4,81.6 L341.9,81.6 L343.3,81.6 L344.8,81.6 L346.2,81.6 L347.6,81.6 L349.1,81.6    L350.5,81.6 L352.0,81.6 L353.4,81.6 L354.9,81.6 L356.3,81.6 L357.8,81.6 L359.2,81.6 L360.7,81.6    L362.1,81.6 L363.6,81.6 L365.0,81.6 L366.5,81.6 L367.9,81.6 L369.4,81.6 L370.8,81.6 L372.3,81.6    L373.7,81.6 L375.2,81.6 L376.6,81.6 L378.1,81.6 L379.5,81.6 L381.0,81.6 L382.4,81.6 L383.9,81.6    L385.3,81.6 L386.8,81.6 L388.2,81.6 L389.7,81.6 L391.1,81.6 L392.6,81.6 L394.0,81.6 L395.5,81.6    L396.9,81.6 L398.4,81.6 L399.8,81.6 L401.3,81.6 L402.7,81.6 L404.2,81.6 L405.6,81.6 L407.1,81.6    L408.5,81.6 L410.0,81.6 L411.4,81.6 L412.9,81.6 L414.3,81.6 L415.8,81.6 L417.2,81.6 L418.7,81.6    L420.1,81.6 L421.6,81.6 L423.0,81.6 L424.5,81.6 L425.9,81.6 L427.4,81.6 L428.8,81.6 L430.3,81.6    L431.7,81.6 L433.2,81.6 L434.6,81.6 L436.1,81.6 L437.5,81.6 L439.0,81.6 L440.4,81.6 L441.9,81.6    L443.3,81.6 L444.8,81.6 L446.2,81.6 L447.7,81.6 L449.1,81.6 L450.6,81.6 L452.0,81.6 L453.5,81.6    L454.9,81.6 L456.4,81.6 L457.8,81.6 L459.3,81.6 L460.7,81.6 L462.2,81.6 L463.6,81.6 L465.1,81.6    L466.5,81.6 L468.0,81.6 L469.4,81.6 L470.9,81.6 L472.3,81.6 L473.8,81.6 L475.2,81.6 L476.7,81.6    L478.1,81.6 L479.6,81.6 L481.0,81.6 L482.5,81.6 L483.9,81.6 L485.4,81.6 L486.8,81.6 L488.3,81.6    L489.7,81.6 L491.2,81.6 L492.6,81.6 L494.1,81.6 L495.5,81.6 L497.0,81.6 L498.4,81.6 L499.9,81.6    L501.3,81.6 L502.8,81.6 L504.2,81.6 L505.7,81.6  h0.01"
           id="path211" />
      </g>
    </g>
    <g
       id="gnuplot_plot_3">
      <title
         id="title214">gnuplot_plot_3</title>
      <g
         style="fill:none; color:cyan; stroke:currentColor; stroke-width:1.00; stroke-linecap:butt; stroke-linejoin:miter"
         id="g216">
        <g
           transform="translate(154.9,390.9)"
           style="stroke:none; fill:black; font-family:Times New Roman; font-size:12.00pt; text-anchor:end"
           id="g218">
          <text
             id="text220">
            <tspan
               id="tspan222">encode2</tspan>
          </text>
        </g>
        <path
           d="M163.2,386.4 L205.4,386.4 M63.6,361.5 L65.0,361.5 L66.4,361.5 L67.9,349.4 L69.3,329.1 L70.8,304.7    L72.2,284.5 L73.7,264.2 L75.1,243.9 L76.6,219.5 L78.0,195.2 L79.5,174.9 L80.9,166.8 L82.4,166.8    L83.8,162.8 L85.3,158.7 L86.7,154.6 L88.2,150.6 L89.6,146.5 L91.1,142.5 L92.5,138.4 L94.0,130.3    L95.4,126.2 L96.9,126.2 L98.3,122.2 L99.8,122.2 L101.2,118.1 L102.7,118.1 L104.1,114.1 L105.6,114.1    L107.0,110.0 L108.5,106.0 L109.9,101.9 L111.4,97.8 L112.8,93.8 L114.3,89.7 L115.7,85.7 L117.2,77.6    L118.6,65.4 L120.1,53.2 L121.5,41.0 L123.0,28.9 L124.4,16.7  h0.01"
           id="path224" />
      </g>
    </g>
    <g
       id="gnuplot_plot_4">
      <title
         id="title227">gnuplot_plot_4</title>
      <g
         style="fill:none; color:gray; stroke:currentColor; stroke-width:1.00; stroke-linecap:butt; stroke-linejoin:miter"
         id="g229">
        <g
           transform="translate(154.9,408.9)"
           style="stroke:none; fill:black; font-family:Times New Roman; font-size:12.00pt; text-anchor:end"
           id="g231">
          <text
             id="text233">
            <tspan
               id="tspan235">threshold</tspan>
          </text>
        </g>
        <path
           stroke-dasharray=" 2,4"
           d="M163.2,404.4 L205.4,404.4 M63.6,119.1 L68.1,119.1 L72.6,119.1 L77.0,119.1 L81.5,119.1 L86.0,119.1    L90.5,119.1 L95.0,119.1 L99.4,119.1 L103.9,119.1 L108.4,119.1 L112.9,119.1 L117.4,119.1 L121.9,119.1    L126.3,119.1 L130.8,119.1 L135.3,119.1 L139.8,119.1 L144.3,119.1 L148.7,119.1 L153.2,119.1 L157.7,119.1    L162.2,119.1 L166.7,119.1 L171.1,119.1 L175.6,119.1 L180.1,119.1 L184.6,119.1 L189.1,119.1 L193.5,119.1    L198.0,119.1 L202.5,119.1 L207.0,119.1 L211.5,119.1 L215.9,119.1 L220.4,119.1 L224.9,119.1 L229.4,119.1    L233.9,119.1 L238.4,119.1 L242.8,119.1 L247.3,119.1 L251.8,119.1 L256.3,119.1 L260.8,119.1 L265.2,119.1    L269.7,119.1 L274.2,119.1 L278.7,119.1 L283.2,119.1 L287.6,119.1 L292.1,119.1 L296.6,119.1 L301.1,119.1    L305.6,119.1 L310.0,119.1 L314.5,119.1 L319.0,119.1 L323.5,119.1 L328.0,119.1 L332.4,119.1 L336.9,119.1    L341.4,119.1 L345.9,119.1 L350.4,119.1 L354.9,119.1 L359.3,119.1 L363.8,119.1 L368.3,119.1 L372.8,119.1    L377.3,119.1 L381.7,119.1 L386.2,119.1 L390.7,119.1 L395.2,119.1 L399.7,119.1 L404.1,119.1 L408.6,119.1    L413.1,119.1 L417.6,119.1 L422.1,119.1 L426.5,119.1 L431.0,119.1 L435.5,119.1 L440.0,119.1 L444.5,119.1    L448.9,119.1 L453.4,119.1 L457.9,119.1 L462.4,119.1 L466.9,119.1 L471.4,119.1 L475.8,119.1 L480.3,119.1    L484.8,119.1 L489.3,119.1 L493.8,119.1 L498.2,119.1 L502.7,119.1 L507.2,119.1  h0.01"
           id="path237" />
      </g>
    </g>
    <g
       style="fill:none; color:black; stroke:currentColor; stroke-width:1.00; stroke-linecap:butt; stroke-linejoin:miter"
       id="g239">
      <path
         stroke="black"
         d="M63.6,16.7 L63.6,422.4 L507.2,422.4 L507.2,16.7 L63.6,16.7 Z  h0.01"
         id="path241" />
    </g>
  </g>
  <rect
     style="opacity:0.09051723;fill:#000000;fill-opacity:1;stroke:#000000;stroke-width:2.02099991;stroke-miterlimit:4;stroke-opacity:1;stroke-dasharray:none;stroke-dashoffset:0"
     id="rect3224"
     width="439.32202"
     height="404.74576"
     x="65.084747"
     y="16.271187"
     ry="0.64649761" />
</svg>
